<svg width="1000" height="1000" viewBox="0 0 1000 1000" fill="none" xmlns="http://www.w3.org/2000/svg">
<g id="drawkit-content-man-colour 1">
<g id="Background">
<path id="bg" d="M837.6 43H109.9V760.3H837.6V43Z" fill="#F3F3F3"/>
<path id="nav" d="M837.6 43H109.9V97.6H837.6V43Z" fill="#E1E1E1"/>
<path id="Vector" d="M148.3 79.5999C153.05 79.5999 156.9 75.7495 156.9 70.9999C156.9 66.2503 153.05 62.3999 148.3 62.3999C143.55 62.3999 139.7 66.2503 139.7 70.9999C139.7 75.7495 143.55 79.5999 148.3 79.5999Z" fill="#09EED3"/>
<path id="Vector_2" d="M176 79.5999C180.75 79.5999 184.6 75.7495 184.6 70.9999C184.6 66.2503 180.75 62.3999 176 62.3999C171.25 62.3999 167.4 66.2503 167.4 70.9999C167.4 75.7495 171.25 79.5999 176 79.5999Z" fill="#1CB6A4"/>
<path id="Vector_3" d="M203.7 79.5999C208.45 79.5999 212.3 75.7495 212.3 70.9999C212.3 66.2503 208.45 62.3999 203.7 62.3999C198.95 62.3999 195.1 66.2503 195.1 70.9999C195.1 75.7495 198.95 79.5999 203.7 79.5999Z" fill="#1FC1AE"/>
<g id="screens">
<path id="Vector_4" d="M436.4 137.4H145.5V295H436.4V137.4Z" fill="white"/>
<path id="Vector_5" d="M436.4 332.4H145.5V490H436.4V332.4Z" fill="white"/>
<path id="Vector_6" d="M798.1 332.4H507.2V672.3H798.1V332.4Z" fill="white"/>
</g>
<g id="paragraphs">
<path id="Vector_7" d="M886.3 148.8H486.9V164H886.3V148.8Z" fill="#E1E1E1"/>
<path id="Vector_8" d="M886.3 191.7H486.9V206.9H886.3V191.7Z" fill="#E1E1E1"/>
<path id="Vector_9" d="M886.3 234.6H486.9V249.8H886.3V234.6Z" fill="#E1E1E1"/>
<path id="Vector_10" d="M886.3 277.5H486.9V292.7H886.3V277.5Z" fill="#E1E1E1"/>
</g>
</g>
<g id="Foreground">
<g id="man">
<path id="Vector_11" d="M705.2 756.2H689.9V779.4H705.2V756.2Z" fill="#DA9D80"/>
<path id="Vector_12" d="M885.5 854.2H870.2V877.4H885.5V854.2Z" fill="#DA9D80"/>
<path id="Vector_13" d="M802.2 541.5C783.7 541.5 701.1 623.6 693.9 637.4C686.7 651.2 688.8 759.3 688.8 759.3L706.6 762.7L735.5 662C748.1 660.5 801.1 649.1 828.5 627C855.9 604.8 825.9 555.3 825.9 555.3L802.2 541.5Z" fill="#6FC9CE"/>
<path id="Vector_14" d="M771.3 430C762.2 438.1 744 458.4 742.5 461C737.9 458.8 690 433.6 686.4 432C682.8 430.4 675.2 417.7 672.6 417.7C671.1 417.7 669.7 420.6 669.7 422.6C669.7 426 671.3 428.6 672.3 429.7C668.9 429.2 638.9 426.9 638.9 428.9C638.9 434.1 672.5 441 675.1 442.4C677.7 443.8 732.4 494.4 751.4 494.4C758.8 494.4 791.5 472.2 791.5 469.8C794.6 467.7 799.4 464.6 799.4 464.6V447L788 438.7C788 438.6 773.1 428.4 771.3 430Z" fill="#DA9D80"/>
<path id="Vector_15" d="M770.1 424.2C772.1 408 809.4 371.2 826.5 387.6C841.4 401.9 814.4 453 807.5 455C799.7 455.8 769.6 435.2 770.1 424.2Z" fill="#FEBF92"/>
<path id="Vector_16" d="M883.9 390.5C902.9 382.5 929.5 426.5 926.5 442.5C926.5 449.5 887.5 464.5 881.5 460.5C875.5 456.5 864.9 398.5 883.9 390.5Z" fill="#FED892"/>
<path id="Vector_17" d="M807.3 548.6L870.1 854.1H886.2L891.9 581.6C891.9 576.9 891.5 547.3 891.5 543.5C873.3 548.8 834.5 553 807.3 548.6Z" fill="#74D5DE"/>
<path id="Vector_18" d="M870.2 877.4H885.5V894H843.3L870.2 877.4Z" fill="black"/>
<path id="Vector_19" d="M689.9 779.4H705.2V796H663L689.9 779.4Z" fill="black"/>
<path id="Vector_20" d="M780.1 796H598V902.6H780.1V796Z" fill="#3B49DF"/>
<path id="Vector_21" d="M842.3 367C889.3 367 905.7 406.1 905.7 418.8C905.7 431.5 891 509 891.6 543.5C891.7 549.2 807.3 554.3 795.8 546C790.4 542.1 778.8 367 842.3 367Z" fill="#FECC92"/>
<path id="Vector_22" d="M926.5 442.5C939.8 462.9 939 509.9 939 517C939 524.1 889.4 587.9 885.1 587.9C882.5 585.3 875.3 577.4 875.3 575C877.6 570.8 907.1 506.3 912.4 501.7C910 498.8 888.9 465.7 888 460.2C906.5 457.1 924.4 449.3 926.5 442.5Z" fill="#DA9D80"/>
<path id="Vector_23" d="M926.5 442.5C929.5 426.5 905.2 380.1 883.9 390.5C865.4 399.6 875.5 456.5 881.5 460.5C888.7 463.6 923.7 453.1 926.5 442.5Z" fill="#FED892"/>
<path id="Vector_24" d="M830.3 357.4C829.3 360.5 828.8 370.1 829.9 374.4C830 374.6 849.9 376.1 852.1 372.6C852.2 369.7 857 343.9 863.5 335.9C864.1 335 862.8 332.5 862.8 332.5L839.7 342.1L830.3 357.4Z" fill="#D38466"/>
<path id="Vector_25" d="M860.2 334.7C861.7 336.7 863.6 337.6 865.3 337.6C869.1 337.6 877.9 334.1 877.9 321.6C877.9 312.6 869.1 308 869.1 303.7C869.1 299.6 870.2 299.5 870.2 296.1C870.2 294.4 868.5 288.8 863.2 288.8C860.2 288.8 859.1 291.3 856.1 291.3C852.8 291.3 849.8 284.9 844.8 284.9C841.4 284.9 838.2 288.1 834.6 288.1C830.5 288.1 827.7 282 822 282C816.1 282 814 287.3 811.7 287.3C808.8 287.3 808.3 286.5 805.4 286.5C803.6 286.5 798.1 289.7 798.1 295.5C798.1 299.6 799.8 306.3 808.3 306.3C813.3 306.3 816.1 314.2 820.5 314.2C822.2 314.2 823.7 312.8 824.1 313.5C825.8 316.5 829.3 324.7 829.3 324.7L845.2 333.6L860.2 334.7Z" fill="#14223C"/>
<path id="Vector_26" d="M856.7 330.6C856.7 332 856.2 332.3 854.1 332.3C853.1 332.3 851.7 331 851.7 329.6C851.7 326.3 854.1 325.6 854.1 321.3C854.1 314 835 310.2 828.3 306.4C825.9 308.8 824.2 311.9 823.5 315.4L819.2 337.5C817.3 347.1 823.6 356.4 833.1 358.3C842.6 360.2 852 353.9 853.9 344.4L854.6 340.6C855 340.7 855.4 340.8 855.7 340.8C858.2 340.8 860.1 338.5 860.1 335.7C860.3 333.1 856.7 328.5 856.7 330.6Z" fill="#DA9D80"/>
</g>
<g id="plant">
<path id="Vector_27" d="M140.7 908.4L70.4001 907.6L45.8 817.3H163.7L140.7 908.4Z" fill="#3B49DF"/>
<path id="Vector_28" d="M114.8 781.9C94.5 646 44.8 574.7 38.5 577.4C29.6 581.3 27 657.6 42.9 736.4C43.3 736.4 43.6 736.3 44 736.3C48.6 736.3 52.3 740 52.3 744.6C52.3 746 52 747.3 51.4 748.4C54.1 749.8 56 752.6 56 755.8C56 759.8 53.1 763.2 49.3 764C54 782.2 59.9 800.2 66.9 816.9C70.5 816.9 110.9 816.9 110.9 816.9C110.9 816.9 117.8 801.7 114.8 781.9Z" fill="#6FC9CE"/>
<path id="Vector_29" d="M232.3 637.8C220 637.8 206.8 673.2 192.2 673.2C189 673.2 186.9 669.7 186.9 666.4C186.9 663.2 197 628 197 610.9C197 609.4 196.9 607.8 196.7 606.2C195.1 607.2 193.1 607.8 191.1 607.8C185.1 607.8 180.2 602.9 180.2 596.9C180.2 591.6 183.9 587.3 188.9 586.2C183.8 579.7 176.3 575.1 166.1 575.1C153.2 575.1 135 586.6 135 604.4C135 609.4 136.5 622.1 136.5 633.6C136.5 698.8 85.4 708.6 85.4 780.8C85.4 796 93.8 812.7 96.3 816.8C96.3 816.8 139.1 817.3 143.2 817.3C147.3 817.3 180.6 761.7 184.4 755.8C198.9 733.4 247.1 708.8 247.1 655.3C247.1 647.8 244.4 637.8 232.3 637.8Z" fill="#74D5DE"/>
</g>
</g>
</g>
</svg>
